<?xml version="1.0" encoding="utf-8"?>
<!-- Generator: Adobe Illustrator 15.1.0, SVG Export Plug-In . SVG Version: 6.00 Build 0)  -->
<!DOCTYPE svg PUBLIC "-//W3C//DTD SVG 1.1//EN" "http://www.w3.org/Graphics/SVG/1.1/DTD/svg11.dtd">
<svg version="1.1" id="Layer_1" xmlns="http://www.w3.org/2000/svg" xmlns:xlink="http://www.w3.org/1999/xlink" x="0px" y="0px"
	 width="612px" height="792px" viewBox="0 0 612 792" enable-background="new 0 0 612 792" xml:space="preserve">
<rect fill="#FFFFFF" stroke="#000000" stroke-miterlimit="10" width="612" height="792"/>
<path fill="#84A2C4" d="M485.439,173.383c-64.122-8.058-131.474-30.367-181.431-63.262
	c-54.207,35.693-110.848,58.917-181.326,64.999l2.126,36.828l16.799,324.515c0,0.006,0,0.018,0,0.021
	c0,55.164,147.108,172.749,162.486,172.749c15.379,0,162.491-117.585,162.491-172.749c0-0.006,0-0.017,0-0.021l16.803-324.604
	L485.439,173.383z"/>
<rect x="132.94" y="506.11" fill="#FFFFFF" width="347.266" height="34.891"/>
<g>
	<path fill="#FFFFFF" d="M295.377,242.005v28.604h4.86c0.424-7.968,6.795-14.303,14.615-14.303h58.011
		c7.822,0,14.193,6.335,14.613,14.303h3.956v-28.604H295.377z"/>
	<path fill="#84A2C4" d="M237.107,261.368h17.52c-13.073-11.346-18.377-31.676-18.377-54.881c0-35.582,13.723-64.431,46.326-64.431
		c34.045,0,46.331,28.849,46.331,64.431c0,23.205-5.006,43.536-18.065,54.881h18.646c14.365-13.439,23.433-33.038,23.433-54.877
		c0-40.52-31.172-73.37-69.625-73.37c-38.448,0-69.62,32.851-69.62,73.37C213.676,228.33,222.739,247.929,237.107,261.368z"/>
	<path fill="#84A2C4" d="M290.184,138.954c-38.449,0-69.621,32.852-69.621,73.372c0,40.522,31.172,73.372,69.621,73.372
		c38.453,0,69.623-32.85,69.623-73.372C359.807,171.806,328.637,138.954,290.184,138.954z M289.466,276.761
		c-33.867,0-46.328-28.849-46.328-64.435s13.723-64.434,46.328-64.434c34.041,0,46.329,28.848,46.329,64.434
		S324.029,276.761,289.466,276.761z"/>
	<path fill="#FFFFFF" d="M288.354,137.126c-38.451,0-69.621,32.85-69.621,73.371c0,40.522,31.169,73.369,69.621,73.369
		c38.45,0,69.621-32.846,69.621-73.369C357.976,169.976,326.805,137.126,288.354,137.126z M287.636,274.933
		c-33.867,0-46.327-28.85-46.327-64.44c0-35.584,13.721-64.432,46.327-64.432c34.041,0,46.324,28.848,46.324,64.432
		C333.96,246.083,322.201,274.933,287.636,274.933z"/>
	<path fill="#FFFFFF" d="M310.718,188.015c-0.224,6.205-3.571,11.136-7.676,11.136H272.58c-4.109,0-7.454-4.932-7.679-11.136h-2.075
		v22.271h0.241v1.148h-0.241v22.269h2.55c0.224-6.203,3.567-11.135,7.672-11.135h30.467c4.101,0,7.448,4.933,7.675,11.135h2.075
		v-20.504v-1.764v-1.148v-3.437v-18.834L310.718,188.015L310.718,188.015z"/>
	<path fill="#FFFFFF" d="M394.447,360.346V331.74h-5.184c-0.448,7.968-7.24,14.302-15.571,14.302h-61.833
		c-8.336,0-15.127-6.334-15.58-14.302h-4.217v28.606H394.447L394.447,360.346z"/>
	<path fill="#FFFFFF" d="M371.992,282.333c-0.281,5.298-4.454,9.507-9.575,9.507h-38.009c-5.121,0-9.296-4.208-9.576-9.507h-2.59
		v19.015h0.297v0.978h-0.297v19.01h3.184c0.276-5.29,4.448-9.503,9.57-9.503h38.01c5.126,0,9.299,4.213,9.578,9.503h2.591v-17.503
		v-1.507v-0.978v-2.936v-16.08L371.992,282.333L371.992,282.333z"/>
</g>
<rect x="132.94" y="454.786" fill="#FFFFFF" width="347.266" height="34.892"/>
<rect x="132.94" y="403.463" fill="#FFFFFF" width="347.266" height="34.893"/>
<rect x="132.94" y="557.433" fill="#FFFFFF" width="347.266" height="34.893"/>
<rect x="132.94" y="608.757" fill="#FFFFFF" width="347.266" height="34.892"/>
<rect x="132.94" y="660.08" fill="#FFFFFF" width="347.266" height="34.892"/>
<path fill="#09193C" d="M304.999,86.766c-60.716,38.477-125.153,63.511-204.094,70.066l2.382,39.7l18.818,349.812
	c0,0.01,0,0.021,0,0.026c0,59.466,164.772,186.219,181.998,186.219c17.223,0,181.998-126.753,181.998-186.219
	c0-0.007,0-0.018,0-0.026l18.822-349.909l2.297-41.477C435.399,146.274,360.956,122.226,304.999,86.766z M490.862,204.965
	l-17.504,335.914c0,0.008,0,0.016,0,0.023c0,57.088-153.241,178.769-169.259,178.769c-16.02,0-169.257-121.681-169.257-178.769
	c0-0.008,0-0.017,0-0.023l-17.501-335.821l-2.214-38.111c73.414-6.293,132.76-30.328,189.226-67.263
	c52.04,34.041,121.852,57.126,188.646,65.464L490.862,204.965z"/>
<g>
	<g>
		<path fill="#09193C" d="M579.94,460.419c-13.806-3.313-27.654-6.375-41.541-9.184c2.638-13.045,5.274-26.091,7.913-39.136
			c-159.428-32.24-323.706-32.239-483.132,0c2.638,13.045,5.276,26.091,7.914,39.136c-13.887,2.809-27.735,5.868-41.539,9.184
			c12.034,11.021,23.781,22.219,35.238,33.585c-5.662,15.503-10.992,31.038-15.988,46.596c25.676-6.164,51.52-11.388,77.479-15.671
			c-2.237-13.56-4.474-27.12-6.711-40.681c122.618-20.229,247.73-20.229,370.348,0c-2.237,13.561-4.474,27.12-6.711,40.681
			c25.96,4.283,51.804,9.507,77.48,15.671c-5.099-15.135-10.52-30.246-16.263-45.322
			C555.967,483.484,567.805,471.861,579.94,460.419z"/>
	</g>
</g>
<g>
	<path fill="#09193C" stroke="#FFFFFF" stroke-width="4" stroke-miterlimit="10" d="M217.844,485.178l-12.209,31.844h12.475v33.319
		h-17.783c-7.079,0-10.617-3.289-10.617-9.87v-23.449l12.74-31.844H217.844z"/>
	<path fill="#09193C" stroke="#FFFFFF" stroke-width="4" stroke-miterlimit="10" d="M234.299,524.672l-5.84-16.29
		c6.544-2.306,12.118-5.512,16.721-9.626c4.599-4.113,8.227-8.556,10.882-13.33h2.653l16.721,8.393v168.831h-25.213V520.227
		L234.299,524.672z"/>
	<path fill="#09193C" stroke="#FFFFFF" stroke-width="4" stroke-miterlimit="10" d="M382.128,621.182h-14.597v41.468h-24.949
		v-41.468h-44.587l-5.309-19.994l49.367-115.762h25.479v115.762h14.597L382.128,621.182L382.128,621.182z M345.237,532.569h-1.327
		l-24.15,68.617h23.618L345.237,532.569z"/>
</g>
<path fill="none" stroke="#84A2C4" stroke-width="6" stroke-miterlimit="10" d="M556.413,498.196
	c12.114-14.15,28.932-29.681,41.674-43.41c-14.494-3.978-31.8-7.65-46.381-11.021c2.771-15.654,3.916-26.043,6.685-41.695
	c-17.875-4.132-35.808-7.817-53.786-11.066l11.064-202.883l2.418-43.093c-75.663-9.025-153.646-35.853-212.595-72.695
	C241.528,112.31,173.2,140.161,90.036,146.974l2.51,41.247l11.072,203.017c-17.552,3.193-35.062,6.799-52.515,10.833
	c2.77,15.652,4.269,26.042,7.039,41.695C43.561,447.136,23.494,450.81,9,454.786c12.636,13.225,31.766,28.245,43.795,41.884
	c-5.946,18.604-13.382,40.93-18.628,59.6c25.077-6.883,52.149-12.772,77.487-17.699l0.715,13.106c0,0.006,0,0.02,0,0.024
	c0,61.783,173.588,193.479,191.734,193.479s191.739-131.694,191.739-193.479c0-0.006,0-0.02,0-0.024l0.729-13.354
	c25.766,4.976,53.263,10.949,78.761,17.944C569.979,538.106,562.444,516.289,556.413,498.196z"/>
<g>
	<path fill="#FFFFFF" d="M150.12,374.296c1.146,2.354,2.286,4.709,3.421,7.065c2.629-0.344,5.259-0.68,7.89-1.006
		c-1.939,1.788-3.87,3.58-5.792,5.377c1.129,2.358,2.252,4.719,3.371,7.08c-2.3-1.254-4.607-2.502-6.923-3.742
		c-1.91,1.803-3.812,3.611-5.704,5.424c0.462-2.572,0.93-5.145,1.402-7.716c-2.326-1.231-4.659-2.456-7-3.674
		c2.626-0.374,5.253-0.738,7.881-1.094C149.146,379.439,149.63,376.867,150.12,374.296z M174.137,378.85
		c-2.634,0.297-5.266,0.604-7.898,0.919c2.312,1.269,4.616,2.545,6.912,3.828c-0.528,2.561-1.052,5.122-1.57,7.683
		c1.93-1.771,3.869-3.536,5.817-5.296c2.286,1.292,4.565,2.59,6.835,3.895c-1.065-2.386-2.136-4.771-3.212-7.153
		c1.959-1.754,3.928-3.503,5.905-5.248c-2.636,0.268-5.271,0.545-7.905,0.831c-1.083-2.381-2.17-4.761-3.263-7.139
		C175.211,373.729,174.671,376.289,174.137,378.85z M199.654,376.253c-2.638,0.239-5.276,0.487-7.913,0.744
		c2.282,1.32,4.556,2.646,6.822,3.98c-0.584,2.548-1.164,5.097-1.738,7.646c1.968-1.727,3.944-3.449,5.93-5.166
		c2.256,1.341,4.504,2.69,6.744,4.045c-1.012-2.409-2.029-4.816-3.052-7.223c1.996-1.71,4.001-3.416,6.015-5.116
		c-2.64,0.209-5.279,0.429-7.918,0.656c-1.029-2.404-2.063-4.808-3.103-7.21C200.841,371.158,200.245,373.706,199.654,376.253z
		 M225.208,374.223c-2.641,0.181-5.282,0.37-7.921,0.569c2.251,1.37,4.494,2.747,6.729,4.13c-0.641,2.535-1.275,5.07-1.905,7.606
		c2.004-1.684,4.017-3.361,6.039-5.034c2.225,1.392,4.442,2.789,6.65,4.193c-0.959-2.431-1.923-4.86-2.892-7.288
		c2.033-1.666,4.075-3.327,6.125-4.982c-2.643,0.151-5.285,0.312-7.927,0.481c-0.976-2.427-1.956-4.853-2.942-7.277
		C226.508,369.154,225.855,371.688,225.208,374.223z M250.794,372.756c-2.644,0.123-5.287,0.254-7.931,0.394
		c2.22,1.419,4.432,2.845,6.635,4.277c-0.696,2.52-1.387,5.041-2.072,7.562c2.04-1.639,4.089-3.272,6.147-4.899
		c2.193,1.44,4.377,2.886,6.554,4.338c-0.905-2.451-1.814-4.901-2.729-7.35c2.068-1.621,4.146-3.236,6.231-4.845
		c-2.645,0.093-5.289,0.195-7.933,0.306c-0.921-2.447-1.848-4.894-2.78-7.339C252.204,367.718,251.496,370.237,250.794,372.756z
		 M276.397,371.854c-2.645,0.064-5.29,0.137-7.935,0.219c2.188,1.468,4.367,2.942,6.537,4.422c-0.751,2.504-1.497,5.009-2.237,7.515
		c2.075-1.593,4.159-3.181,6.251-4.762c2.161,1.488,4.312,2.982,6.456,4.482c-0.85-2.47-1.706-4.94-2.566-7.409
		c2.103-1.574,4.215-3.144,6.335-4.707c-2.646,0.035-5.292,0.079-7.937,0.131c-0.868-2.467-1.74-4.934-2.618-7.399
		C277.918,366.849,277.155,369.352,276.397,371.854z M302.011,371.518c-2.646,0.006-5.291,0.021-7.936,0.044
		c2.154,1.516,4.3,3.038,6.438,4.566c-0.806,2.487-1.607,4.975-2.403,7.463c2.11-1.547,4.229-3.088,6.356-4.624
		c2.126,1.535,4.245,3.077,6.354,4.624c-0.795-2.489-1.597-4.977-2.401-7.463c2.138-1.528,4.283-3.05,6.438-4.566
		c-2.646-0.023-5.293-0.038-7.938-0.044c-0.812-2.486-1.631-4.971-2.454-7.455C303.642,366.547,302.824,369.032,302.011,371.518z
		 M327.629,371.747c-2.646-0.053-5.292-0.097-7.938-0.131c2.119,1.563,4.231,3.132,6.336,4.707
		c-0.861,2.469-1.718,4.938-2.567,7.409c2.145-1.5,4.296-2.994,6.456-4.482c2.093,1.582,4.178,3.169,6.253,4.762
		c-0.74-2.505-1.486-5.01-2.237-7.515c2.171-1.48,4.351-2.955,6.538-4.422c-2.646-0.082-5.291-0.155-7.937-0.219
		c-0.757-2.503-1.521-5.005-2.288-7.507C329.367,366.813,328.495,369.279,327.629,371.747z M353.234,372.54
		c-2.646-0.111-5.289-0.213-7.935-0.307c2.086,1.61,4.163,3.225,6.231,4.845c-0.915,2.449-1.825,4.899-2.73,7.35
		c2.177-1.452,4.361-2.898,6.556-4.338c2.058,1.627,4.106,3.261,6.146,4.899c-0.685-2.521-1.375-5.042-2.07-7.562
		c2.203-1.433,4.414-2.858,6.635-4.277c-2.645-0.141-5.287-0.272-7.932-0.394c-0.702-2.52-1.41-5.038-2.123-7.556
		C355.082,367.646,354.155,370.092,353.234,372.54z M378.822,373.898c-2.643-0.169-5.284-0.33-7.928-0.481
		c2.051,1.655,4.093,3.316,6.125,4.982c-0.97,2.428-1.934,4.857-2.892,7.288c2.208-1.404,4.425-2.802,6.649-4.193
		c2.021,1.673,4.034,3.351,6.04,5.034c-0.631-2.536-1.266-5.071-1.904-7.606c2.235-1.383,4.479-2.76,6.729-4.13
		c-2.641-0.199-5.28-0.388-7.923-0.569c-0.646-2.535-1.299-5.068-1.957-7.602C380.778,369.045,379.798,371.471,378.822,373.898z
		 M404.385,375.821c-2.639-0.228-5.276-0.446-7.917-0.656c2.015,1.7,4.02,3.405,6.016,5.116c-1.022,2.406-2.04,4.812-3.054,7.223
		c2.24-1.355,4.488-2.704,6.744-4.045c1.985,1.717,3.962,3.439,5.929,5.166c-0.572-2.549-1.15-5.098-1.734-7.646
		c2.266-1.333,4.539-2.66,6.821-3.98c-2.638-0.257-5.273-0.505-7.911-0.744c-0.591-2.548-1.188-5.096-1.79-7.643
		C406.448,371.013,405.414,373.417,404.385,375.821z M429.91,378.309c-2.634-0.286-5.271-0.563-7.905-0.831
		c1.979,1.744,3.945,3.493,5.904,5.248c-1.075,2.383-2.146,4.768-3.211,7.153c2.27-1.305,4.548-2.604,6.834-3.895
		c1.948,1.761,3.887,3.526,5.816,5.296c-0.519-2.561-1.042-5.122-1.569-7.683c2.296-1.283,4.601-2.559,6.912-3.828
		c-2.633-0.315-5.266-0.622-7.898-0.919c-0.535-2.561-1.074-5.12-1.62-7.68C432.08,373.548,430.993,375.928,429.91,378.309z
		 M455.389,381.361c-2.629-0.344-5.259-0.68-7.889-1.006c1.938,1.787,3.869,3.58,5.79,5.377c-1.129,2.358-2.253,4.719-3.371,7.08
		c2.3-1.254,4.608-2.501,6.924-3.742c1.91,1.804,3.812,3.611,5.703,5.424c-0.462-2.572-0.929-5.145-1.401-7.716
		c2.325-1.231,4.658-2.456,6.999-3.674c-2.626-0.374-5.253-0.738-7.881-1.094c-0.479-2.572-0.962-5.143-1.452-7.714
		C457.665,376.65,456.524,379.005,455.389,381.361z"/>
</g>
<g>
	<g>
		<path fill="#FFFFFF" d="M93.348,424.621c3.262,17.101,6.524,34.201,9.787,51.303c-2.825,0.538-5.648,1.089-8.469,1.65
			c-3.399-17.074-6.799-34.148-10.198-51.224c-2.835,0.564-5.668,1.142-8.5,1.728c-0.486-2.352-0.973-4.701-1.46-7.052
			c8.673-1.796,17.362-3.489,26.065-5.08c0.432,2.36,0.864,4.722,1.295,7.083C99.026,423.549,96.187,424.08,93.348,424.621z"/>
		<path fill="#FFFFFF" d="M135.331,470.287c-1.417-8.883-2.833-17.766-4.25-26.647c-3.573,0.57-7.145,1.158-10.713,1.764
			c1.504,8.868,3.007,17.735,4.511,26.604c-2.833,0.48-5.664,0.974-8.493,1.477c-3.468-19.505-6.937-39.008-10.405-58.512
			c2.986-0.53,5.974-1.05,8.962-1.557c1.407,8.297,2.814,16.593,4.221,24.89c3.592-0.608,7.187-1.199,10.783-1.773
			c-1.325-8.311-2.65-16.62-3.976-24.931c2.993-0.478,5.987-0.941,8.983-1.396c2.963,19.587,5.925,39.174,8.888,58.76
			C141.004,469.394,138.167,469.835,135.331,470.287z"/>
		<path fill="#FFFFFF" d="M152.096,467.749c-2.811-19.609-5.622-39.219-8.433-58.828c7.432-1.064,14.873-2.057,22.32-2.974
			c0.293,2.382,0.587,4.765,0.88,7.146c-4.416,0.543-8.828,1.113-13.238,1.71c0.806,5.96,1.611,11.921,2.417,17.881
			c3.851-0.521,7.703-1.021,11.558-1.501c0.296,2.383,0.593,4.765,0.89,7.146c-3.83,0.477-7.658,0.974-11.483,1.491
			c0.884,6.534,1.767,13.068,2.65,19.604c4.234-0.572,8.471-1.12,12.71-1.642c0.293,2.382,0.587,4.765,0.88,7.146
			C166.191,465.8,159.14,466.739,152.096,467.749z"/>
		<path fill="#FFFFFF" d="M187.868,410.707c1.804,17.315,3.608,34.631,5.413,51.946c-2.851,0.297-5.702,0.604-8.551,0.925
			c-1.942-17.3-3.885-34.602-5.827-51.901c-2.863,0.322-5.726,0.654-8.587,0.998c-0.286-2.384-0.572-4.767-0.858-7.149
			c8.764-1.053,17.537-2.001,26.318-2.85c0.23,2.391,0.461,4.779,0.691,7.168C193.599,410.121,190.733,410.408,187.868,410.707z"/>
		<path fill="#FFFFFF" d="M214.77,460.632c-2.855,0.239-5.71,0.491-8.564,0.753c-1.504-16.347-3.008-32.692-4.512-49.04
			c-0.629-6.755,2.666-10.482,9.893-11.082c2.26-0.187,4.521-0.366,6.782-0.538c7.229-0.548,11.069,2.614,11.514,9.384
			c1.093,16.38,2.186,32.759,3.279,49.139c-2.858,0.189-5.716,0.393-8.573,0.605c-0.541-7.235-1.082-14.472-1.623-21.708
			c-3.34,0.25-6.679,0.516-10.017,0.796C213.555,446.17,214.162,453.4,214.77,460.632z M222.428,430.963
			c-0.491-6.575-0.983-13.15-1.475-19.727c-0.172-2.312-1.569-3.37-4.19-3.165c-0.811,0.062-1.623,0.128-2.433,0.192
			c-2.621,0.211-3.834,1.479-3.639,3.786c0.552,6.57,1.104,13.143,1.655,19.713C215.706,431.481,219.066,431.215,222.428,430.963z"
			/>
		<path fill="#FFFFFF" d="M279.911,457.146c-2.773,0.062-5.545,0.139-8.318,0.225c-1.843-7.479-3.719-14.953-5.628-22.423
			c-0.061,0.002-0.122,0.004-0.183,0.007c-1.71,7.598-3.38,15.199-5.009,22.805c-2.652,0.108-5.305,0.228-7.957,0.355
			c2.228-10.135,4.531-20.265,6.911-30.384c-3.003-9.681-6.076-19.349-9.217-29.004c2.956-0.142,5.912-0.271,8.868-0.39
			c1.991,7.237,3.949,14.479,5.875,21.728c0.062-0.003,0.124-0.005,0.185-0.007c1.592-7.372,3.221-14.74,4.887-22.105
			c2.8-0.085,5.6-0.16,8.4-0.226c-2.481,9.854-4.892,19.717-7.232,29.587C274.368,437.247,277.174,447.191,279.911,457.146z"/>
		<path fill="#FFFFFF" d="M285.635,457.028c-0.353-19.807-0.706-39.612-1.06-59.419c3.021-0.055,6.042-0.097,9.062-0.125
			c0.195,19.809,0.39,39.616,0.585,59.426C291.361,456.938,288.498,456.978,285.635,457.028z"/>
		<path fill="#FFFFFF" d="M317.804,397.503c5.916,0.068,11.832,0.182,17.746,0.342c6.928,0.191,10.267,3.725,10.013,10.502
			c-0.177,4.882-0.354,9.762-0.529,14.643c-0.189,5.185-2.055,8.397-5.571,9.666c1.783,8.31,3.521,16.624,5.213,24.94
			c-2.712-0.101-5.425-0.189-8.138-0.271c-1.644-8.053-3.327-16.104-5.054-24.147c-1.769-0.043-3.536-0.081-5.305-0.115
			c-0.154,8-0.311,15.998-0.466,23.998c-2.863-0.056-5.726-0.1-8.588-0.133C317.351,437.12,317.577,417.312,317.804,397.503z
			 M326.311,426.276c1.933,0.036,3.864,0.08,5.798,0.128c2.635,0.064,3.994-1.33,4.076-4.199c0.121-4.274,0.241-8.549,0.362-12.823
			c0.082-2.866-1.224-4.342-3.911-4.409c-1.97-0.049-3.938-0.092-5.909-0.13C326.588,411.987,326.449,419.132,326.311,426.276z"/>
		<path fill="#FFFFFF" d="M351.2,457.857c0.854-19.791,1.707-39.583,2.561-59.374c7.484,0.322,14.966,0.72,22.444,1.189
			c-0.15,2.396-0.302,4.792-0.452,7.188c-4.434-0.279-8.868-0.532-13.305-0.76c-0.308,6.008-0.614,12.015-0.921,18.021
			c3.873,0.197,7.745,0.416,11.615,0.654c-0.146,2.396-0.295,4.791-0.441,7.187c-3.847-0.237-7.693-0.454-11.542-0.649
			c-0.336,6.585-0.673,13.171-1.01,19.757c4.259,0.217,8.517,0.46,12.772,0.729c-0.15,2.396-0.302,4.791-0.453,7.188
			C365.383,458.539,358.293,458.163,351.2,457.857z"/>
		<path fill="#FFFFFF" d="M396.818,408.386c-1.419,17.353-2.84,34.702-4.259,52.055c-2.854-0.233-5.712-0.456-8.568-0.666
			c1.281-17.362,2.562-34.726,3.842-52.086c-2.871-0.213-5.743-0.413-8.615-0.604c0.158-2.396,0.316-4.79,0.476-7.186
			c8.797,0.581,17.589,1.265,26.374,2.051c-0.214,2.391-0.429,4.782-0.644,7.173C402.557,408.866,399.688,408.62,396.818,408.386z"
			/>
		<path fill="#FFFFFF" d="M411.523,402.452c5.896,0.557,11.79,1.159,17.68,1.808c6.897,0.765,9.938,4.562,9.126,11.295
			c-0.579,4.851-1.158,9.698-1.737,14.547c-0.618,5.152-2.743,8.2-6.358,9.174c1.095,8.429,2.143,16.857,3.145,25.288
			c-2.698-0.325-5.397-0.641-8.1-0.943c-0.976-8.162-1.991-16.322-3.052-24.483c-1.76-0.188-3.521-0.373-5.281-0.554
			c-0.815,7.959-1.631,15.918-2.446,23.878c-2.853-0.292-5.704-0.573-8.558-0.842C407.802,441.896,409.662,422.174,411.523,402.452z
			 M417.636,431.83c1.925,0.197,3.851,0.398,5.774,0.605c2.624,0.283,4.097-0.992,4.415-3.847c0.474-4.25,0.946-8.5,1.42-12.75
			c0.319-2.85-0.862-4.429-3.539-4.717c-1.962-0.212-3.924-0.418-5.886-0.619C419.092,417.613,418.363,424.722,417.636,431.83z"/>
		<path fill="#FFFFFF" d="M439.87,465.363c2.485-19.653,4.972-39.307,7.457-58.959c7.444,0.94,14.883,1.957,22.312,3.047
			c-0.349,2.375-0.696,4.75-1.045,7.125c-4.404-0.646-8.812-1.267-13.223-1.859c-0.803,5.961-1.604,11.922-2.407,17.883
			c3.852,0.519,7.699,1.058,11.546,1.615c-0.345,2.375-0.689,4.75-1.035,7.126c-3.82-0.556-7.646-1.091-11.472-1.604
			c-0.879,6.534-1.759,13.069-2.639,19.604c4.233,0.569,8.466,1.165,12.694,1.785c-0.349,2.375-0.696,4.75-1.045,7.125
			C453.975,467.218,446.926,466.256,439.87,465.363z"/>
		<path fill="#FFFFFF" d="M475.47,470.471c-2.836-0.455-5.673-0.897-8.511-1.331c2.473-16.229,4.945-32.458,7.419-48.687
			c1.015-6.707,5.115-9.532,12.291-8.372c2.244,0.363,4.486,0.734,6.729,1.112c7.168,1.211,10.147,5.207,8.949,11.883
			c-2.881,16.162-5.761,32.323-8.642,48.483c-2.83-0.505-5.661-0.997-8.494-1.479c1.216-7.153,2.434-14.307,3.648-21.46
			c-3.312-0.563-6.624-1.111-9.939-1.645C477.771,456.143,476.62,463.307,475.47,470.471z M490.067,443.521
			c1.104-6.502,2.21-13.003,3.314-19.504c0.39-2.283-0.715-3.647-3.314-4.082c-0.807-0.134-1.61-0.267-2.415-0.397
			c-2.603-0.427-4.087,0.51-4.453,2.798c-1.046,6.511-2.091,13.021-3.138,19.532C483.399,442.403,486.734,442.955,490.067,443.521z"
			/>
		<path fill="#FFFFFF" d="M525.182,426.353c-3.398,17.073-6.799,34.147-10.197,51.223c-2.821-0.562-5.646-1.111-8.47-1.65
			c3.263-17.101,6.524-34.202,9.786-51.303c-2.838-0.541-5.679-1.072-8.52-1.592c0.432-2.361,0.863-4.723,1.295-7.083
			c8.703,1.591,17.392,3.284,26.064,5.08c-0.486,2.351-0.974,4.7-1.461,7.052C530.85,427.492,528.017,426.916,525.182,426.353z"/>
	</g>
</g>
</svg>
