<?xml version="1.0" encoding="utf-8"?>
<!-- Generator: Adobe Illustrator 15.1.0, SVG Export Plug-In . SVG Version: 6.00 Build 0)  -->
<!DOCTYPE svg PUBLIC "-//W3C//DTD SVG 1.1//EN" "http://www.w3.org/Graphics/SVG/1.1/DTD/svg11.dtd">
<svg version="1.1" id="Layer_1" xmlns="http://www.w3.org/2000/svg" xmlns:xlink="http://www.w3.org/1999/xlink" x="0px" y="0px"
	 width="1610px" height="807px" viewBox="0 0 1610 807" enable-background="new 0 0 1610 807" xml:space="preserve">
<rect fill="#FFFFFF" stroke="#000000" stroke-miterlimit="10" width="1610" height="807"/>
<g>
	<path fill="#58595B" d="M439.841,329.041c0,6.57-1.946,12.167-3.893,16.303c-2.92-2.19-7.3-4.137-12.653-4.137
		c-13.87,0-26.523,12.653-26.523,65.7c0,42.339,5.354,54.993,18.98,54.993c7.543,0,14.357-1.218,18.98-3.65
		c1.946,4.137,3.649,10.22,3.649,16.061c0,11.437-11.192,18.007-29.687,18.007c-27.497,0-40.637-15.086-40.637-83.22
		c0-79.812,26.768-94.414,48.667-94.414C437.408,314.684,439.841,321.741,439.841,329.041z"/>
	<path fill="#58595B" d="M491.185,316.144c31.634,0,43.313,18.25,43.313,85.41c0,68.376-14.113,89.304-45.99,89.304
		s-43.8-16.305-43.8-88.33C444.708,336.341,459.795,316.144,491.185,316.144z M489.968,462.63c11.923,0,14.601-17.033,14.601-60.103
		c0-42.339-1.217-58.399-14.356-58.399c-11.193,0-14.355,16.79-14.355,64.483C475.855,446.57,477.558,462.63,489.968,462.63z"/>
	<path fill="#58595B" d="M648.133,318.334V483.8c0,4.866,0,4.866-27.982,4.866l1.217-46.232c0.973-39.42,7.057-72.756,7.057-72.756
		l-0.729-0.487c-4.138,16.547-9.733,37.474-12.167,44.772l-11.681,32.363c-0.486,1.461-1.702,1.704-2.677,1.704h-11.193
		l-11.437-34.067c-2.19-6.812-7.543-28.226-11.68-44.772l-0.975,0.487c0,0,6.57,32.606,7.058,72.512l0.729,41.609
		c0,4.866-1.703,4.866-27.01,4.866V323.201c0-4.867,2.19-4.867,4.867-4.867h20.683l19.225,59.86
		c4.865,15.086,6.569,24.577,6.569,24.577s1.46-9.732,5.84-24.089l16.546-55.48c1.218-3.65,1.947-4.867,4.867-4.867H648.133
		L648.133,318.334z"/>
	<path fill="#58595B" d="M690.47,318.334V483.8c0,4.866-0.243,4.866-27.739,4.866V330.257
		C662.73,318.334,663.217,318.334,690.47,318.334z"/>
	<path fill="#58595B" d="M795.102,318.334V483.8c0,2.92-1.702,4.866-4.865,4.866h-21.17l-25.793-65.213
		c-5.354-13.626-10.95-36.743-14.356-53.533c1.947,19.223,3.407,40.15,3.407,55.48V483.8c0,4.866-0.244,4.866-27.253,4.866V323.201
		c0-3.407,1.46-4.867,4.866-4.867h21.657l25.308,63.997c5.596,14.113,10.707,34.796,14.112,50.37
		c-2.433-20.196-3.163-36.5-3.163-52.803v-56.696C767.849,318.334,768.336,318.334,795.102,318.334z"/>
	<path fill="#58595B" d="M887.322,330.014c0,6.327-1.703,11.923-3.406,16.79c-3.65-2.92-10.949-4.867-17.275-4.867
		c-24.576,0-29.931,18.25-29.931,64.97c0,49.64,4.137,57.427,17.276,57.427c4.866,0,6.813-1.217,7.787-2.19v-54.507H850.58v-17.52
		c0-3.164,1.947-4.867,5.84-4.867h30.902l-0.242,98.306c-7.787,5.109-19.71,7.301-33.58,7.301c-36.743,0-46.232-16.547-46.232-81.76
		c0-78.354,19.709-92.954,53.533-92.954C878.32,316.144,887.322,322.714,887.322,330.014z"/>
	<path fill="#58595B" d="M1006.311,329.527c0,4.624-1.705,10.22-6.327,15.33c-2.677-1.947-11.923-4.867-21.171-4.867
		c-11.922,0-19.223,3.893-19.223,12.41c0,7.543,2.435,12.897,8.76,21.657l23.359,29.93c11.68,15.087,14.602,25.793,14.602,39.664
		c0,24.333-9.004,47.448-44.286,47.448c-21.9,0-31.878-7.786-31.878-16.303c0-5.354,1.947-13.384,6.084-19.71
		c5.109,4.623,13.869,8.03,22.63,8.03c13.383,0,17.764-7.301,17.764-18.737c0-8.271-2.435-14.6-10.949-25.793L943.529,388.9
		c-11.193-14.843-13.625-25.063-13.625-35.77c0-21.9,14.6-37.23,43.312-37.23C997.793,315.901,1006.311,321.011,1006.311,329.527z"
		/>
	<path fill="#58595B" d="M1061.301,316.144c31.633,0,43.312,18.25,43.312,85.41c0,68.376-14.113,89.304-45.99,89.304
		c-31.875,0-43.799-16.305-43.799-88.33C1014.824,336.341,1029.91,316.144,1061.301,316.144z M1060.084,462.63
		c11.924,0,14.6-17.033,14.6-60.103c0-42.339-1.217-58.399-14.354-58.399c-11.193,0-14.357,16.79-14.357,64.483
		C1045.971,446.57,1047.674,462.63,1060.084,462.63z"/>
	<path fill="#58595B" d="M1160.822,316.144c31.635,0,43.313,18.25,43.313,85.41c0,68.376-14.112,89.304-45.989,89.304
		s-43.802-16.305-43.802-88.33C1114.346,336.341,1129.434,316.144,1160.822,316.144z M1159.605,462.63
		c11.924,0,14.602-17.033,14.602-60.103c0-42.339-1.217-58.399-14.357-58.399c-11.192,0-14.356,16.79-14.356,64.483
		C1145.492,446.57,1147.197,462.63,1159.605,462.63z"/>
	<path fill="#58595B" d="M1306.334,318.334V483.8c0,2.92-1.703,4.866-4.867,4.866h-21.17l-25.793-65.213
		c-5.354-13.626-10.949-36.743-14.354-53.533c1.944,19.223,3.405,40.15,3.405,55.48V483.8c0,4.866-0.244,4.866-27.254,4.866V323.201
		c0-3.407,1.461-4.867,4.867-4.867h21.656l25.307,63.997c5.598,14.113,10.707,34.796,14.113,50.37
		c-2.434-20.196-3.164-36.5-3.164-52.803v-56.696C1279.08,318.334,1279.568,318.334,1306.334,318.334z"/>
</g>
</svg>
