<?xml version="1.0" encoding="utf-8"?>
<!-- Generator: Adobe Illustrator 15.1.0, SVG Export Plug-In . SVG Version: 6.00 Build 0)  -->
<!DOCTYPE svg PUBLIC "-//W3C//DTD SVG 1.1//EN" "http://www.w3.org/Graphics/SVG/1.1/DTD/svg11.dtd">
<svg version="1.1" id="Layer_1" xmlns="http://www.w3.org/2000/svg" xmlns:xlink="http://www.w3.org/1999/xlink" x="0px" y="0px"
	 width="1610px" height="807px" viewBox="0 0 1610 807" enable-background="new 0 0 1610 807" xml:space="preserve">
<rect fill="#FFFFFF" width="1610" height="807"/>
<path fill="#58595B" d="M270.688,370.874c-3.529,0-8.471,0-15.294-0.471l-7.765-37.411h-31.294l-6.823,32.94
	c-0.706,3.295-1.412,4.941-12,4.941c-3.529,0-10.588-0.234-16.705-0.941L220.1,210.171c0.706-3.529,4.471-4.941,10.588-4.941
	c4.471,0,9.177,0.235,12.471,0.941l39.294,159.998C283.157,369.228,281.275,370.874,270.688,370.874z M242.688,309.228
	l-4.471-21.882c-2.588-12.47-4.705-29.646-6.117-44.47c-1.647,14.823-3.765,32-6.353,44.47l-4.471,21.882H242.688z"/>
<path fill="#58595B" d="M327.389,250.405c23.764,0,33.882,6.823,33.882,30.353v84.94c0,4.705-0.706,4.705-27.294,4.705v-81.41
	c0-12.235-1.177-16-7.765-16c-3.059,0-6.353,0.941-8.941,2.823v89.882c0,4.705-0.471,4.705-26.353,4.705V258.17
	C298.212,254.641,315.624,250.405,327.389,250.405z"/>
<path fill="#58595B" d="M445.265,197.465v168.233c-8,3.529-19.059,7.059-34.353,7.059c-20,0-38.117-5.883-38.117-55.765
	c0-48.234,13.882-66.587,32.234-66.587c6.354,0,11.06,1.883,13.883,4.235v-45.646C418.912,197.465,423.383,197.465,445.265,197.465z
	 M413.971,272.993c-4.706,0-11.529,1.883-11.529,40.705c0,28,2.588,35.764,8.706,35.764c3.059,0,5.646-0.705,7.765-2.352v-72.94
	C417.5,273.229,415.618,272.993,413.971,272.993z"/>
<path fill="#58595B" d="M492.788,250.405c12.705,0,15.764,3.765,15.764,11.765c0,3.059-0.471,9.411-2.588,15.294
	c-3.294-1.647-6.353-1.883-8.706-1.883c-2.823,0-7.059,1.177-10.117,3.765l-0.235,86.353c0,4.705,0,4.705-26.823,4.705v-109.41
	C468.317,255.347,479.611,250.405,492.788,250.405z"/>
<path fill="#58595B" d="M578.668,340.521c1.412,4.706,2.117,12.235,2.117,17.647c0,9.412-15.059,14.588-33.411,14.588
	c-21.411,0-36.47-10.824-36.47-55.529c0-56.94,19.294-66.822,41.411-66.822c18.823,0,30.117,11.059,30.117,38.353
	c0,11.294-0.941,24.234-3.294,33.411c-11.529,2.353-28.94,3.059-40.705,3.294c0.706,15.059,4,21.647,15.294,21.647
	C562.197,347.11,570.433,344.521,578.668,340.521z M538.434,304.993c6.353,0,13.646-0.471,17.176-2.118
	c0.941-2.823,1.177-8.471,1.177-12.235c0-15.059-2.118-17.411-8-17.411C541.728,273.229,538.904,283.581,538.434,304.993z"/>
<path fill="#58595B" d="M709.721,252.758c0,0-21.882,117.646-23.529,117.646c0,0-4.94,1.178-17.176,1.178
	c-5.412,0-12-3.061-13.411-11.766l-2.354-15.529c-1.411-9.646-2.353-23.529-3.059-36.234c-0.706,12.705-1.647,26.588-3.294,36.234
	l-4.235,26.117c0,0-13.411,1.178-22.823,1.178c-6.353,0-9.411-5.178-10.823-11.529c-6.353-28.001-20.471-102.353-20.471-102.353
	c-0.705-4.941,1.647-4.941,29.177-4.941l4.47,32.941c3.06,22.823,4.941,55.999,4.941,55.999h1.883
	c0.471-6.824,0.94-22.588,2.588-34.117l6.353-47.294c0.706-4.47,1.412-5.176,8.471-5.176h7.059h10.353l8,52.47
	c1.647,10.117,2.824,34.117,2.824,34.117h1.882c0.706-16.471,2.117-40,4.235-55.999l3.529-27.765
	C685.016,252.758,685.957,252.758,709.721,252.758z"/>
<path fill="#58595B" d="M849.005,205.7v159.998c0,4.705,0,4.705-27.059,4.705l1.178-44.705c0.939-38.117,6.822-70.352,6.822-70.352
	l-0.705-0.471c-4,16-9.412,36.234-11.766,43.293l-11.293,31.294c-0.471,1.411-1.647,1.647-2.589,1.647h-10.823l-11.059-32.941
	c-2.117-6.588-7.294-27.293-11.294-43.293l-0.941,0.471c0,0,6.353,31.528,6.823,70.116l0.706,40.235
	c0,4.705-1.647,4.705-26.117,4.705V210.406c0-4.706,2.117-4.706,4.706-4.706h20l18.588,57.882
	c4.705,14.588,6.353,23.764,6.353,23.764s1.411-9.411,5.647-23.294l16-53.646c1.176-3.529,1.881-4.706,4.705-4.706H849.005z"/>
<path fill="#58595B" d="M919.823,276.522c-3.766-1.646-9.883-3.059-14.824-3.059c-8.471,0-16.705,4.471-16.705,40.234
	c0,27.059,3.293,35.764,15.764,35.764c4.941,0,11.295-1.41,15.059-3.293c1.412,5.883,2.117,9.883,2.117,13.883
	c0,7.764-10.588,12.705-25.646,12.705c-24.234,0-34.822-9.883-34.822-58.588c0-56.47,22.352-63.764,41.881-63.764
	c11.529,0,19.529,4.471,19.529,12C922.175,265.935,921.704,270.876,919.823,276.522z"/>
<path fill="#58595B" d="M1011.815,212.053l-26.822,63.999c17.176,16,25.41,47.764,25.41,89.41c0,4.236-1.646,5.412-11.059,5.412
	c-5.881,0-12.234-0.234-18.822-0.705c0-28.707-2.117-56.706-15.529-71.765c-2.117-2.353-4.471-4-7.059-5.176v72.47
	c0,4.705,0,4.705-26.824,4.705V210.406c0-4.706,0-4.706,26.824-4.706v67.293l25.646-65.646c6.354-1.412,12.471-1.883,16.941-1.883
	C1009.933,205.465,1013.698,207.348,1011.815,212.053z"/>
<path fill="#58595B" d="M1023.573,370.403V264.287c0-11.529,5.178-11.529,26.824-11.529v112.94
	C1050.397,370.403,1050.161,370.403,1023.573,370.403z M1039.103,200.053c9.646,0,12.471,4.471,12.471,17.177
	s-4.941,20.235-14.117,20.235c-7.766,0-12.705-4.235-12.705-19.059C1024.751,207.582,1029.22,200.053,1039.103,200.053z"/>
<path fill="#58595B" d="M1060.276,275.111c0-20,0.234-22.354,5.412-22.354h8.705v-34.116c0-8.235,5.176-8.235,26.354-8.235v42.352
	h19.293c0,20.235-0.234,22.354-5.176,22.354h-14.117v63.999c0,5.411,0,11.293,5.646,11.293c4.234,0,7.764-0.941,12.234-3.059
	c0.707,3.295,1.646,7.529,1.646,12.707c0,11.293-12.469,12.705-21.41,12.705c-20.705,0-24.471-12.234-24.471-33.177v-64.469
	H1060.276z"/>
<path fill="#58595B" d="M1112.979,275.111c0-20,0.234-22.354,5.412-22.354h8.705v-34.116c0-8.235,5.176-8.235,26.354-8.235v42.352
	h19.293c0,20.235-0.234,22.354-5.176,22.354h-14.117v63.999c0,5.411,0,11.293,5.646,11.293c4.234,0,7.764-0.941,12.234-3.059
	c0.707,3.295,1.646,7.529,1.646,12.707c0,11.293-12.469,12.705-21.41,12.705c-20.705,0-24.471-12.234-24.471-33.177v-64.469
	H1112.979z"/>
<path fill="#58595B" d="M1218.151,250.405c12.705,0,15.764,3.765,15.764,11.765c0,3.059-0.471,9.411-2.588,15.294
	c-3.293-1.647-6.354-1.883-8.705-1.883c-2.824,0-7.059,1.177-10.117,3.765l-0.236,86.353c0,4.705,0,4.705-26.822,4.705v-109.41
	C1193.681,255.347,1204.976,250.405,1218.151,250.405z"/>
<path fill="#58595B" d="M1244.03,370.403V264.287c0-11.529,5.176-11.529,26.822-11.529v112.94
	C1270.853,370.403,1270.618,370.403,1244.03,370.403z M1259.56,200.053c9.646,0,12.469,4.471,12.469,17.177
	s-4.939,20.235-14.117,20.235c-7.764,0-12.705-4.235-12.705-19.059C1245.206,207.582,1249.677,200.053,1259.56,200.053z"/>
<path fill="#58595B" d="M1342.378,276.522c-3.764-1.646-9.881-3.059-14.822-3.059c-8.471,0-16.707,4.471-16.707,40.234
	c0,27.059,3.295,35.764,15.766,35.764c4.941,0,11.293-1.41,15.059-3.293c1.412,5.883,2.117,9.883,2.117,13.883
	c0,7.764-10.588,12.705-25.646,12.705c-24.234,0-34.822-9.883-34.822-58.588c0-56.47,22.352-63.764,41.881-63.764
	c11.529,0,19.529,4.471,19.529,12C1344.731,265.935,1344.261,270.876,1342.378,276.522z"/>
<path fill="#58595B" d="M1381.431,197.465v59.528c6.354-3.529,15.059-6.588,24.941-6.588c16,0,19.529,10.823,19.529,20
	c0,17.646-8.236,29.882-13.646,35.528c12.234,8.941,16.705,25.647,16.939,44.47c0,5.178-0.234,10.588-0.705,16
	c-0.471,4-0.705,4-30.117,4c0.705-8,1.176-16.234,1.176-23.764c0-18.118-2.588-29.883-11.764-28.235
	c-3.766,0.706-6.354,3.294-6.354,3.294v44c0,4.705,0.236,4.705-26.588,4.705V208.994
	C1354.843,197.465,1359.784,197.465,1381.431,197.465z M1391.548,273.935c-4,0-7.293,2.588-10.117,6.588v23.529
	c9.646-5.412,14.824-12.235,14.824-23.765C1396.255,276.287,1394.843,273.935,1391.548,273.935z"/>
<line fill="none" stroke="#58595B" stroke-width="6" stroke-miterlimit="10" x1="180.807" y1="395.777" x2="1429.194" y2="395.777"/>
<g>
	<path fill="#58595B" d="M196.965,425.725c0,0.986-0.363,1.921-0.674,2.543c-0.519-0.467-1.765-1.297-3.374-1.297
		c-3.269,0-6.643,2.335-6.643,15.983c0,10.587,2.18,12.922,5.189,12.922c2.024,0,3.84-0.83,4.774-1.608
		c0.363,0.675,0.675,1.66,0.675,2.543c0,2.023-2.595,3.736-6.435,3.736c-4.93,0-8.615-2.231-8.615-17.333
		c0-17.748,5.553-20.343,10.224-20.343C195.927,422.871,196.965,424.376,196.965,425.725z"/>
	<path fill="#58595B" d="M208.747,423.078c6.695,0,9.186,4.256,9.186,18.268c0,14.271-2.958,18.993-9.756,18.993
		c-6.746,0-9.393-3.892-9.393-18.838C198.783,427.697,202,423.078,208.747,423.078z M208.332,456.032
		c3.736,0,5.034-3.996,5.034-14.583c0-10.379-1.038-14.063-4.774-14.063c-3.633,0-5.086,3.944-5.086,15.153
		C203.505,452.191,204.647,456.032,208.332,456.032z"/>
	<path fill="#58595B" d="M238.379,439.841c0,15.205-3.736,20.031-10.119,20.031h-6.487v-35.341c0-0.622,0.26-0.985,1.401-0.985
		h5.034C235.006,423.546,238.379,427.23,238.379,439.841z M228.364,427.438h-2.387v28.438h2.335c2.698,0,5.241-2.075,5.241-16.45
		C233.553,429.825,231.841,427.438,228.364,427.438z"/>
	<path fill="#58595B" d="M246.113,456.084h8.875c0,3.528,0,3.788-0.831,3.788h-12.299v-35.496c0,0,0.052-0.83,0.882-0.83h12.455
		c0,3.373,0,3.788-0.831,3.788h-8.251v10.846h7.785c0,3.166,0,3.893-0.779,3.893h-7.006V456.084z"/>
	<path fill="#58595B" d="M272.217,459.976c-0.675,0-1.557-0.052-2.491-0.104c-0.519-8.771-3.01-13.077-4.255-14.79
		c-0.311,0.052-0.674,0.052-0.986,0.052h-1.816v13.856c0,0.882-0.104,0.882-4.255,0.882v-35.496c0,0,0-0.83,0.882-0.83h2.491h2.647
		c6.539,0,9.548,3.062,9.548,10.274c0,5.501-1.816,8.615-4.515,10.12c1.661,2.231,4.359,7.006,4.878,14.945
		C274.345,459.717,274.189,459.976,272.217,459.976z M264.9,441.242c2.906,0,4.411-2.128,4.411-7.629c0-3.996-1.038-6.383-4.1-6.383
		h-2.543v14.012H264.9z"/>
	<path fill="#58595B" d="M289.967,470.251v-51.532c0-1.089,0.052-1.142,4.255-1.142v51.636
		C294.222,470.251,294.066,470.251,289.967,470.251z"/>
	<path fill="#58595B" d="M327.54,439.841c0,15.205-3.736,20.031-10.119,20.031h-6.487v-35.341c0-0.622,0.26-0.985,1.401-0.985h5.034
		C324.167,423.546,327.54,427.23,327.54,439.841z M317.524,427.438h-2.387v28.438h2.335c2.698,0,5.241-2.075,5.241-16.45
		C322.713,429.825,321.001,427.438,317.524,427.438z"/>
	<path fill="#58595B" d="M335.273,456.084h8.875c0,3.528,0,3.788-0.831,3.788h-12.299v-35.496c0,0,0.052-0.83,0.882-0.83h12.455
		c0,3.373,0,3.788-0.831,3.788h-8.251v10.846h7.785c0,3.166,0,3.893-0.779,3.893h-7.006V456.084z"/>
	<path fill="#58595B" d="M346.639,423.546h3.425l4.307,20.083c0.882,4.619,1.557,9.341,2.076,12.662
		c0.415-3.321,1.038-8.096,1.868-12.662l3.84-18.838c0.156-0.83,0.312-1.245,1.09-1.245h3.685l-7.992,36.481
		c-1.142,0.156-1.92,0.208-3.529,0.208c-1.35,0-2.076-1.245-2.491-3.01c-2.076-8.459-7.213-32.435-7.213-32.435
		C345.498,423.909,345.498,423.546,346.639,423.546z"/>
	<path fill="#58595B" d="M373.678,456.084h8.875c0,3.528,0,3.788-0.831,3.788h-12.299v-35.496c0,0,0.052-0.83,0.882-0.83h12.455
		c0,3.373,0,3.788-0.831,3.788h-8.251v10.846h7.785c0,3.166,0,3.893-0.779,3.893h-7.006V456.084z"/>
	<path fill="#58595B" d="M399.16,455.928v3.062c0,0.727-0.363,0.882-0.831,0.882h-12.351v-35.133c0-1.193,0.104-1.193,4.255-1.193
		v32.382H399.16z"/>
	<path fill="#58595B" d="M409.955,423.078c6.695,0,9.186,4.256,9.186,18.268c0,14.271-2.958,18.993-9.756,18.993
		c-6.746,0-9.393-3.892-9.393-18.838C399.991,427.697,403.209,423.078,409.955,423.078z M409.54,456.032
		c3.736,0,5.034-3.996,5.034-14.583c0-10.379-1.038-14.063-4.774-14.063c-3.633,0-5.086,3.944-5.086,15.153
		C404.714,452.191,405.855,456.032,409.54,456.032z"/>
	<path fill="#58595B" d="M438.498,433.82c0,8.511-4.359,11.313-9.497,11.313h-1.816v13.856c0,0.882-0.052,0.882-4.255,0.882v-35.496
		c0-0.571,0.208-0.83,0.882-0.83h2.491h2.647C435.488,423.546,438.498,426.607,438.498,433.82z M433.828,433.302
		c0-3.685-1.038-6.071-4.1-6.071h-2.543v14.012h2.231C432.323,441.242,433.828,439.114,433.828,433.302z"/>
	<path fill="#58595B" d="M445.92,456.084h8.875c0,3.528,0,3.788-0.831,3.788h-12.299v-35.496c0,0,0.052-0.83,0.882-0.83h12.455
		c0,3.373,0,3.788-0.831,3.788h-8.251v10.846h7.785c0,3.166,0,3.893-0.779,3.893h-7.006V456.084z"/>
	<path fill="#58595B" d="M472.024,459.976c-0.675,0-1.557-0.052-2.491-0.104c-0.519-8.771-3.01-13.077-4.255-14.79
		c-0.311,0.052-0.674,0.052-0.986,0.052h-1.816v13.856c0,0.882-0.104,0.882-4.255,0.882v-35.496c0,0,0-0.83,0.882-0.83h2.491h2.647
		c6.539,0,9.548,3.062,9.548,10.274c0,5.501-1.816,8.615-4.515,10.12c1.661,2.231,4.359,7.006,4.878,14.945
		C474.151,459.717,473.996,459.976,472.024,459.976z M464.707,441.242c2.906,0,4.411-2.128,4.411-7.629
		c0-3.996-1.038-6.383-4.1-6.383h-2.543v14.012H464.707z"/>
	<path fill="#58595B" d="M489.773,470.251v-51.532c0-1.089,0.052-1.142,4.255-1.142v51.636
		C494.029,470.251,493.873,470.251,489.773,470.251z"/>
	<path fill="#58595B" d="M514.996,456.084h8.875c0,3.528,0,3.788-0.831,3.788H510.74v-35.496c0,0,0.052-0.83,0.882-0.83h12.455
		c0,3.373,0,3.788-0.831,3.788h-8.251v10.846h7.785c0,3.166,0,3.893-0.779,3.893h-7.006V456.084z"/>
	<path fill="#58595B" d="M545.874,423.546v35.444c0,0.57-0.312,0.882-0.882,0.882h-3.166l-5.916-14.271
		c-0.934-2.335-3.633-10.586-4.93-14.686c0.312,3.373,0.571,13.285,0.571,15.517v12.559c0,0.882-0.052,0.882-4.255,0.882v-35.496
		c0-0.571,0.26-0.83,0.882-0.83h3.217l5.812,14.012c1.038,2.698,3.685,10.742,4.93,14.634v-0.155
		c-0.363-3.114-0.467-12.974-0.467-15.413v-12.247C541.67,423.546,541.722,423.546,545.874,423.546z"/>
	<path fill="#58595B" d="M566.322,425.673c0,0.986-0.208,1.868-0.519,2.647c-0.934-0.727-2.439-1.246-4.152-1.246
		c-5.293,0-7.473,3.581-7.473,15.153c0,12.352,1.972,14.012,5.345,14.012c1.816,0,2.802-0.83,3.062-1.245v-12.87h-3.84v-2.698
		c0-0.571,0.363-0.883,0.986-0.883h6.798v19.513c-1.246,1.038-3.477,2.283-7.11,2.283c-6.902,0-9.756-3.217-9.756-17.8
		c0-16.243,4.308-19.461,11.158-19.461C564.246,423.078,566.322,424.324,566.322,425.673z"/>
	<path fill="#58595B" d="M574.626,423.546v35.444c0,0.882-0.052,0.882-4.307,0.882v-34.406
		C570.319,423.546,570.423,423.546,574.626,423.546z"/>
	<path fill="#58595B" d="M597.668,423.546v35.444c0,0.57-0.312,0.882-0.882,0.882h-3.166l-5.916-14.271
		c-0.934-2.335-3.633-10.586-4.93-14.686c0.312,3.373,0.571,13.285,0.571,15.517v12.559c0,0.882-0.052,0.882-4.255,0.882v-35.496
		c0-0.571,0.26-0.83,0.882-0.83h3.217l5.812,14.012c1.038,2.698,3.685,10.742,4.93,14.634v-0.155
		c-0.363-3.114-0.467-12.974-0.467-15.413v-12.247C593.464,423.546,593.516,423.546,597.668,423.546z"/>
	<path fill="#58595B" d="M606.439,456.084h8.875c0,3.528,0,3.788-0.831,3.788h-12.299v-35.496c0,0,0.052-0.83,0.882-0.83h12.455
		c0,3.373,0,3.788-0.831,3.788h-8.251v10.846h7.785c0,3.166,0,3.893-0.779,3.893h-7.006V456.084z"/>
	<path fill="#58595B" d="M623.046,456.084h8.875c0,3.528,0,3.788-0.831,3.788h-12.299v-35.496c0,0,0.052-0.83,0.882-0.83h12.455
		c0,3.373,0,3.788-0.831,3.788h-8.251v10.846h7.785c0,3.166,0,3.893-0.779,3.893h-7.006V456.084z"/>
	<path fill="#58595B" d="M649.15,459.976c-0.675,0-1.557-0.052-2.491-0.104c-0.519-8.771-3.01-13.077-4.255-14.79
		c-0.311,0.052-0.674,0.052-0.986,0.052h-1.816v13.856c0,0.882-0.104,0.882-4.255,0.882v-35.496c0,0,0-0.83,0.882-0.83h2.491h2.647
		c6.539,0,9.548,3.062,9.548,10.274c0,5.501-1.816,8.615-4.515,10.12c1.661,2.231,4.359,7.006,4.878,14.945
		C651.278,459.717,651.123,459.976,649.15,459.976z M641.833,441.242c2.906,0,4.411-2.128,4.411-7.629
		c0-3.996-1.038-6.383-4.1-6.383h-2.543v14.012H641.833z"/>
	<path fill="#58595B" d="M658.7,470.251v-51.532c0-1.089,0.052-1.142,4.255-1.142v51.636
		C662.956,470.251,662.8,470.251,658.7,470.251z"/>
	<path fill="#58595B" d="M696.273,439.841c0,15.205-3.736,20.031-10.119,20.031h-6.487v-35.341c0-0.622,0.26-0.985,1.401-0.985
		h5.034C692.9,423.546,696.273,427.23,696.273,439.841z M686.258,427.438h-2.387v28.438h2.335c2.698,0,5.241-2.075,5.241-16.45
		C691.447,429.825,689.735,427.438,686.258,427.438z"/>
	<path fill="#58595B" d="M704.007,456.084h8.875c0,3.528,0,3.788-0.831,3.788h-12.299v-35.496c0,0,0.052-0.83,0.882-0.83h12.455
		c0,3.373,0,3.788-0.831,3.788h-8.251v10.846h7.785c0,3.166,0,3.893-0.779,3.893h-7.006V456.084z"/>
	<path fill="#58595B" d="M731.149,425.621c0,0.727-0.312,1.661-1.038,2.439c-0.675-0.571-2.699-1.298-5.086-1.298
		c-3.062,0-5.034,1.298-5.034,3.581c0,1.92,0.831,3.27,2.387,5.138l5.604,6.383c2.699,3.218,3.477,5.553,3.477,8.771
		c0,5.241-2.231,9.756-9.289,9.756c-4.723,0-6.798-1.66-6.798-3.113c0-0.83,0.363-2.076,1.09-3.01
		c1.09,0.985,2.854,1.816,5.345,1.816c3.685,0,5.085-2.128,5.085-5.294c0-2.387-0.726-4.1-3.01-6.746l-5.189-6.071
		c-2.387-2.906-3.27-5.034-3.27-7.474c0-4.411,3.114-7.473,8.926-7.473C729.281,423.026,731.149,424.168,731.149,425.621z"/>
	<path fill="#58595B" d="M739.193,423.546v35.444c0,0.882-0.052,0.882-4.307,0.882v-34.406
		C734.886,423.546,734.99,423.546,739.193,423.546z"/>
	<path fill="#58595B" d="M759.64,425.673c0,0.986-0.207,1.868-0.519,2.647c-0.934-0.727-2.439-1.246-4.152-1.246
		c-5.293,0-7.473,3.581-7.473,15.153c0,12.352,1.972,14.012,5.345,14.012c1.816,0,2.802-0.83,3.062-1.245v-12.87h-3.84v-2.698
		c0-0.571,0.363-0.883,0.986-0.883h6.798v19.513c-1.246,1.038-3.477,2.283-7.11,2.283c-6.902,0-9.756-3.217-9.756-17.8
		c0-16.243,4.308-19.461,11.158-19.461C757.564,423.078,759.64,424.324,759.64,425.673z"/>
	<path fill="#58595B" d="M782.215,423.546v35.444c0,0.57-0.311,0.882-0.882,0.882h-3.166l-5.916-14.271
		c-0.934-2.335-3.632-10.586-4.93-14.686c0.312,3.373,0.571,13.285,0.571,15.517v12.559c0,0.882-0.053,0.882-4.256,0.882v-35.496
		c0-0.571,0.26-0.83,0.882-0.83h3.218l5.812,14.012c1.038,2.698,3.685,10.742,4.93,14.634v-0.155
		c-0.363-3.114-0.467-12.974-0.467-15.413v-12.247C778.012,423.546,778.064,423.546,782.215,423.546z"/>
	<path fill="#58595B" d="M790.988,456.084h8.874c0,3.528,0,3.788-0.83,3.788h-12.3v-35.496c0,0,0.052-0.83,0.883-0.83h12.454
		c0,3.373,0,3.788-0.83,3.788h-8.251v10.846h7.784c0,3.166,0,3.893-0.778,3.893h-7.006V456.084z"/>
	<path fill="#58595B" d="M817.092,459.976c-0.674,0-1.557-0.052-2.49-0.104c-0.52-8.771-3.01-13.077-4.256-14.79
		c-0.312,0.052-0.676,0.052-0.986,0.052h-1.816v13.856c0,0.882-0.104,0.882-4.255,0.882v-35.496c0,0,0-0.83,0.882-0.83h2.491h2.646
		c6.539,0,9.549,3.062,9.549,10.274c0,5.501-1.816,8.615-4.514,10.12c1.66,2.231,4.359,7.006,4.877,14.945
		C819.219,459.717,819.064,459.976,817.092,459.976z M809.775,441.242c2.906,0,4.41-2.128,4.41-7.629c0-3.996-1.037-6.383-4.1-6.383
		h-2.543v14.012H809.775z"/>
	<path fill="#58595B" d="M834.84,470.251v-51.532c0-1.089,0.053-1.142,4.256-1.142v51.636
		C839.096,470.251,838.939,470.251,834.84,470.251z"/>
	<path fill="#58595B" d="M871.324,433.82c0,8.511-4.359,11.313-9.496,11.313h-1.816v13.856c0,0.882-0.053,0.882-4.256,0.882v-35.496
		c0-0.571,0.207-0.83,0.881-0.83h2.492h2.646C868.314,423.546,871.324,426.607,871.324,433.82z M866.654,433.302
		c0-3.685-1.039-6.071-4.102-6.071h-2.541v14.012h2.23C865.148,441.242,866.654,439.114,866.654,433.302z"/>
	<path fill="#58595B" d="M886.945,459.872v-17.696h-8.252v16.814c0,0.882,0.053,0.882-4.203,0.882v-35.496
		c0-0.83-0.053-0.83,4.203-0.83v14.79h8.252v-13.96c0-0.83-0.053-0.83,4.203-0.83v35.444
		C891.148,459.872,891.199,459.872,886.945,459.872z"/>
	<path fill="#58595B" d="M904.953,423.078c6.695,0,9.186,4.256,9.186,18.268c0,14.271-2.957,18.993-9.756,18.993
		c-6.746,0-9.393-3.892-9.393-18.838C894.99,427.697,898.207,423.078,904.953,423.078z M904.539,456.032
		c3.736,0,5.033-3.996,5.033-14.583c0-10.379-1.037-14.063-4.773-14.063c-3.633,0-5.086,3.944-5.086,15.153
		C899.713,452.191,900.854,456.032,904.539,456.032z"/>
	<path fill="#58595B" d="M933.602,423.546v3.062c0,0.675-0.26,0.882-0.883,0.882h-6.383v31.553c0,0.83-0.051,0.83-4.203,0.83
		v-32.383h-7.059v-3.113c0-0.571,0.26-0.83,0.883-0.83H933.602z"/>
	<path fill="#58595B" d="M944.137,423.078c6.695,0,9.186,4.256,9.186,18.268c0,14.271-2.957,18.993-9.756,18.993
		c-6.746,0-9.393-3.892-9.393-18.838C934.174,427.697,937.391,423.078,944.137,423.078z M943.723,456.032
		c3.736,0,5.033-3.996,5.033-14.583c0-10.379-1.037-14.063-4.773-14.063c-3.633,0-5.086,3.944-5.086,15.153
		C938.896,452.191,940.037,456.032,943.723,456.032z"/>
	<path fill="#58595B" d="M973.096,425.673c0,0.986-0.207,1.868-0.52,2.647c-0.934-0.727-2.439-1.246-4.15-1.246
		c-5.295,0-7.475,3.581-7.475,15.153c0,12.352,1.973,14.012,5.346,14.012c1.816,0,2.803-0.83,3.062-1.245v-12.87h-3.84v-2.698
		c0-0.571,0.363-0.883,0.986-0.883h6.797v19.513c-1.244,1.038-3.477,2.283-7.109,2.283c-6.902,0-9.756-3.217-9.756-17.8
		c0-16.243,4.307-19.461,11.156-19.461C971.02,423.078,973.096,424.324,973.096,425.673z"/>
	<path fill="#58595B" d="M990.896,459.976c-0.674,0-1.557-0.052-2.49-0.104c-0.52-8.771-3.01-13.077-4.256-14.79
		c-0.311,0.052-0.674,0.052-0.984,0.052h-1.816v13.856c0,0.882-0.105,0.882-4.256,0.882v-35.496c0,0,0-0.83,0.881-0.83h2.492h2.646
		c6.539,0,9.549,3.062,9.549,10.274c0,5.501-1.816,8.615-4.516,10.12c1.662,2.231,4.359,7.006,4.879,14.945
		C993.025,459.717,992.869,459.976,990.896,459.976z M983.58,441.242c2.906,0,4.412-2.128,4.412-7.629
		c0-3.996-1.039-6.383-4.102-6.383h-2.541v14.012H983.58z"/>
	<path fill="#58595B" d="M1014.719,459.976c-0.623,0-1.453,0-2.492-0.104l-2.23-9.237h-8.979l-1.973,8.511
		c-0.154,0.571-0.311,0.83-1.971,0.83c-0.572,0-1.662-0.052-2.646-0.155l9.236-35.704c0.104-0.519,0.676-0.727,1.609-0.727
		c0.727,0,1.504,0.052,1.971,0.156l9.291,35.548C1016.689,459.664,1016.379,459.976,1014.719,459.976z M1009.113,446.795
		l-1.764-7.369c-0.832-3.426-1.557-7.474-1.816-9.964c-0.312,2.49-1.039,6.486-1.816,9.964l-1.766,7.369H1009.113z"/>
	<path fill="#58595B" d="M1034.646,433.82c0,8.511-4.359,11.313-9.496,11.313h-1.816v13.856c0,0.882-0.053,0.882-4.256,0.882
		v-35.496c0-0.571,0.209-0.83,0.883-0.83h2.49h2.646C1031.637,423.546,1034.646,426.607,1034.646,433.82z M1029.977,433.302
		c0-3.685-1.037-6.071-4.1-6.071h-2.543v14.012h2.232C1028.473,441.242,1029.977,439.114,1029.977,433.302z"/>
	<path fill="#58595B" d="M1050.268,459.872v-17.696h-8.25v16.814c0,0.882,0.051,0.882-4.205,0.882v-35.496
		c0-0.83-0.051-0.83,4.205-0.83v14.79h8.25v-13.96c0-0.83-0.051-0.83,4.203-0.83v35.444
		C1054.471,459.872,1054.523,459.872,1050.268,459.872z"/>
	<path fill="#58595B" d="M1063.295,456.084h8.875c0,3.528,0,3.788-0.83,3.788h-12.301v-35.496c0,0,0.053-0.83,0.883-0.83h12.455
		c0,3.373,0,3.788-0.83,3.788h-8.252v10.846h7.785c0,3.166,0,3.893-0.779,3.893h-7.006V456.084z"/>
	<path fill="#58595B" d="M1089.398,459.976c-0.674,0-1.557-0.052-2.49-0.104c-0.52-8.771-3.01-13.077-4.256-14.79
		c-0.311,0.052-0.674,0.052-0.984,0.052h-1.816v13.856c0,0.882-0.105,0.882-4.256,0.882v-35.496c0,0,0-0.83,0.881-0.83h2.492h2.646
		c6.539,0,9.549,3.062,9.549,10.274c0,5.501-1.816,8.615-4.516,10.12c1.662,2.231,4.359,7.006,4.879,14.945
		C1091.527,459.717,1091.371,459.976,1089.398,459.976z M1082.082,441.242c2.906,0,4.412-2.128,4.412-7.629
		c0-3.996-1.039-6.383-4.102-6.383h-2.541v14.012H1082.082z"/>
	<path fill="#58595B" d="M1107.148,470.251v-51.532c0-1.089,0.053-1.142,4.256-1.142v51.636
		C1111.404,470.251,1111.248,470.251,1107.148,470.251z"/>
	<path fill="#58595B" d="M1142.49,425.725c0,0.986-0.363,1.921-0.674,2.543c-0.52-0.467-1.764-1.297-3.373-1.297
		c-3.27,0-6.643,2.335-6.643,15.983c0,10.587,2.18,12.922,5.189,12.922c2.023,0,3.84-0.83,4.773-1.608
		c0.363,0.675,0.676,1.66,0.676,2.543c0,2.023-2.596,3.736-6.436,3.736c-4.93,0-8.615-2.231-8.615-17.333
		c0-17.748,5.553-20.343,10.225-20.343C1141.453,422.871,1142.49,424.376,1142.49,425.725z"/>
	<path fill="#58595B" d="M1154.271,423.078c6.695,0,9.186,4.256,9.186,18.268c0,14.271-2.957,18.993-9.756,18.993
		c-6.746,0-9.393-3.892-9.393-18.838C1144.309,427.697,1147.525,423.078,1154.271,423.078z M1153.857,456.032
		c3.736,0,5.033-3.996,5.033-14.583c0-10.379-1.037-14.063-4.773-14.063c-3.633,0-5.086,3.944-5.086,15.153
		C1149.031,452.191,1150.172,456.032,1153.857,456.032z"/>
	<path fill="#58595B" d="M1180.635,423.546c0,3.373,0,3.632-0.83,3.632h-8.25v11.002h7.783c0,3.166,0,3.841-0.777,3.841h-7.006
		v16.97c0,0,0.051,0.882-0.832,0.882h-3.424v-35.496c0,0,0.051-0.83,0.883-0.83H1180.635z"/>
	<path fill="#58595B" d="M1196.828,423.546c0,3.373,0,3.632-0.83,3.632h-8.252v11.002h7.785c0,3.166,0,3.841-0.779,3.841h-7.006
		v16.97c0,0,0.053,0.882-0.83,0.882h-3.426v-35.496c0,0,0.053-0.83,0.883-0.83H1196.828z"/>
	<path fill="#58595B" d="M1203.939,456.084h8.873c0,3.528,0,3.788-0.83,3.788h-12.299v-35.496c0,0,0.051-0.83,0.883-0.83h12.453
		c0,3.373,0,3.788-0.83,3.788h-8.25v10.846h7.783c0,3.166,0,3.893-0.777,3.893h-7.006V456.084z"/>
	<path fill="#58595B" d="M1220.547,456.084h8.873c0,3.528,0,3.788-0.83,3.788h-12.299v-35.496c0,0,0.051-0.83,0.883-0.83h12.453
		c0,3.373,0,3.788-0.83,3.788h-8.25v10.846h7.783c0,3.166,0,3.893-0.777,3.893h-7.006V456.084z"/>
	<path fill="#58595B" d="M1245.354,456.084h8.873c0,3.528,0,3.788-0.83,3.788h-12.299v-35.496c0,0,0.051-0.83,0.883-0.83h12.453
		c0,3.373,0,3.788-0.83,3.788h-8.25v10.846h7.783c0,3.166,0,3.893-0.777,3.893h-7.006V456.084z"/>
	<path fill="#58595B" d="M1276.23,423.546v35.444c0,0.57-0.311,0.882-0.881,0.882h-3.166l-5.916-14.271
		c-0.934-2.335-3.633-10.586-4.93-14.686c0.311,3.373,0.57,13.285,0.57,15.517v12.559c0,0.882-0.053,0.882-4.256,0.882v-35.496
		c0-0.571,0.26-0.83,0.883-0.83h3.217l5.812,14.012c1.039,2.698,3.686,10.742,4.93,14.634v-0.155
		c-0.363-3.114-0.467-12.974-0.467-15.413v-12.247C1272.027,423.546,1272.08,423.546,1276.23,423.546z"/>
	<path fill="#58595B" d="M1297.406,423.546v3.062c0,0.675-0.26,0.882-0.883,0.882h-6.383v31.553c0,0.83-0.051,0.83-4.203,0.83
		v-32.383h-7.059v-3.113c0-0.571,0.26-0.83,0.883-0.83H1297.406z"/>
	<path fill="#58595B" d="M1312.561,459.872v-17.696h-8.252v16.814c0,0.882,0.053,0.882-4.203,0.882v-35.496
		c0-0.83-0.053-0.83,4.203-0.83v14.79h8.252v-13.96c0-0.83-0.053-0.83,4.203-0.83v35.444
		C1316.764,459.872,1316.814,459.872,1312.561,459.872z"/>
	<path fill="#58595B" d="M1330.621,456.499c1.816,0,3.684-0.467,4.566-0.935v-31.137c0-0.882,0.053-0.882,4.256-0.882v34.977
		c-1.297,0.831-4.723,1.868-8.822,1.868c-8.303,0-9.342-5.085-9.342-11.105v-24.857c0-0.882,0-0.882,4.359-0.882v25.844
		C1325.639,453.593,1326.262,456.499,1330.621,456.499z"/>
	<path fill="#58595B" d="M1358.801,425.621c0,0.727-0.311,1.661-1.037,2.439c-0.674-0.571-2.699-1.298-5.086-1.298
		c-3.062,0-5.033,1.298-5.033,3.581c0,1.92,0.83,3.27,2.387,5.138l5.605,6.383c2.697,3.218,3.477,5.553,3.477,8.771
		c0,5.241-2.232,9.756-9.289,9.756c-4.723,0-6.799-1.66-6.799-3.113c0-0.83,0.363-2.076,1.09-3.01
		c1.09,0.985,2.854,1.816,5.346,1.816c3.684,0,5.086-2.128,5.086-5.294c0-2.387-0.727-4.1-3.01-6.746l-5.189-6.071
		c-2.389-2.906-3.27-5.034-3.27-7.474c0-4.411,3.113-7.473,8.926-7.473C1356.934,423.026,1358.801,424.168,1358.801,425.621z"/>
	<path fill="#58595B" d="M1366.846,423.546v35.444c0,0.882-0.051,0.882-4.307,0.882v-34.406
		C1362.539,423.546,1362.643,423.546,1366.846,423.546z"/>
	<path fill="#58595B" d="M1389.629,459.976c-0.623,0-1.453,0-2.492-0.104l-2.23-9.237h-8.979l-1.973,8.511
		c-0.154,0.571-0.311,0.83-1.971,0.83c-0.572,0-1.662-0.052-2.646-0.155l9.236-35.704c0.104-0.519,0.676-0.727,1.609-0.727
		c0.727,0,1.504,0.052,1.971,0.156l9.291,35.548C1391.6,459.664,1391.289,459.976,1389.629,459.976z M1384.023,446.795l-1.764-7.369
		c-0.832-3.426-1.557-7.474-1.816-9.964c-0.312,2.49-1.039,6.486-1.816,9.964l-1.766,7.369H1384.023z"/>
	<path fill="#58595B" d="M1408.83,425.621c0,0.727-0.311,1.661-1.037,2.439c-0.674-0.571-2.699-1.298-5.086-1.298
		c-3.062,0-5.033,1.298-5.033,3.581c0,1.92,0.83,3.27,2.387,5.138l5.605,6.383c2.697,3.218,3.477,5.553,3.477,8.771
		c0,5.241-2.232,9.756-9.289,9.756c-4.723,0-6.799-1.66-6.799-3.113c0-0.83,0.363-2.076,1.09-3.01
		c1.09,0.985,2.854,1.816,5.346,1.816c3.684,0,5.086-2.128,5.086-5.294c0-2.387-0.727-4.1-3.01-6.746l-5.189-6.071
		c-2.389-2.906-3.27-5.034-3.27-7.474c0-4.411,3.113-7.473,8.926-7.473C1406.963,423.026,1408.83,424.168,1408.83,425.621z"/>
	<path fill="#58595B" d="M1429.277,423.546v3.062c0,0.675-0.258,0.882-0.881,0.882h-6.383v31.553c0,0.83-0.053,0.83-4.205,0.83
		v-32.383h-7.057v-3.113c0-0.571,0.26-0.83,0.883-0.83H1429.277z"/>
</g>
<g>
	<path fill="#58595B" d="M522.005,506.528h7.504l9.437,43.999c1.933,10.119,3.411,20.465,4.548,27.741
		c0.909-7.276,2.273-17.736,4.093-27.741l8.413-41.271c0.341-1.819,0.682-2.729,2.388-2.729h8.072l-17.509,79.926
		c-2.501,0.342-4.207,0.455-7.731,0.455c-2.956,0-4.548-2.729-5.458-6.595c-4.548-18.531-15.803-71.058-15.803-71.058
		C519.504,507.324,519.504,506.528,522.005,506.528z"/>
	<path fill="#58595B" d="M581.242,506.528v77.652c0,1.933-0.114,1.933-9.437,1.933v-75.379
		C571.805,506.528,572.033,506.528,581.242,506.528z"/>
	<path fill="#58595B" d="M600.456,577.813h19.442c0,7.731,0,8.3-1.819,8.3h-26.945v-77.767c0,0,0.114-1.818,1.933-1.818h27.287
		c0,7.39,0,8.299-1.819,8.299h-18.077v23.763h17.054c0,6.935,0,8.526-1.706,8.526h-15.349V577.813z"/>
	<path fill="#58595B" d="M696.415,506.528l-14.894,79.926c-3.297,0.342-4.207,0.568-7.731,0.568c-2.729,0-4.207-2.501-5.003-6.48
		l-5.798-25.467c-1.137-6.14-2.615-18.305-3.524-26.149c-0.91,7.73-2.274,19.896-3.297,26.035l-6.14,31.493
		c-2.956,0.342-4.661,0.455-8.527,0.455c-2.388,0-3.866-2.956-4.662-7.049c-3.979-18.873-13.529-70.604-13.529-70.604
		c-0.341-1.819-0.228-2.729,1.933-2.729h7.618l8.186,43.999c1.819,10.119,2.615,18.305,3.411,25.581h0.682
		c0.455-9.096,1.478-17.396,2.956-25.581l6.935-37.405c0.341-1.933,0.569-2.842,2.388-2.842h3.979h2.615l7.958,40.247
		c1.933,10.232,2.615,18.19,3.411,25.467h0.682c0.569-7.162,1.478-16.939,2.843-25.467l7.276-41.271
		c0.341-1.819,0.682-2.729,2.387-2.729H696.415z"/>
	<path fill="#58595B" d="M765.431,506.528v77.652c0,1.933,0,1.933-9.437,1.933l0.341-27.628c0.341-11.255,1.933-31.379,2.16-33.994
		c-2.388,8.527-6.48,23.193-7.39,25.923l-6.026,17.281c-0.228,0.796-0.796,0.909-1.25,0.909h-3.979l-5.912-18.19
		c-0.91-2.502-4.889-16.94-7.276-25.695l-0.114,0.114c0,0,2.047,21.033,2.16,33.198l0.228,26.149c0,1.933-0.568,1.933-9.209,1.933
		v-77.767c0-1.705,0.91-1.818,1.933-1.818h6.708l10.801,34.335c1.479,4.661,3.639,12.62,3.639,12.62s1.933-7.959,3.297-12.279
		l10.005-32.857c0.341-1.022,0.683-1.818,1.819-1.818H765.431z"/>
	<path fill="#58595B" d="M796.018,584.181c0,1.933,0.113,1.933-9.209,1.933v-32.289l-15.689-45.818
		c-0.455-1.478-0.228-1.478,10.459-1.478l4.548,15.575c2.274,7.276,5.344,20.465,5.571,23.763
		c0.341-3.298,3.524-16.486,5.685-23.763l3.979-13.87c0.568-1.705,0.568-1.705,10.005-1.705l-15.349,46.841V584.181z"/>
	<path fill="#58595B" d="M864.917,586.341c-1.478,0-3.41-0.114-5.457-0.228c-1.137-19.214-6.594-28.65-9.322-32.402
		c-0.683,0.113-1.479,0.113-2.161,0.113h-3.979v30.356c0,1.933-0.228,1.933-9.323,1.933v-77.767c0,0,0-1.818,1.933-1.818h5.458
		h5.798c14.325,0,20.92,6.708,20.92,22.511c0,12.052-3.979,18.873-9.892,22.17c3.638,4.89,9.55,15.349,10.688,32.744
		C869.579,585.772,869.237,586.341,864.917,586.341z M848.887,545.298c6.367,0,9.664-4.662,9.664-16.713
		c0-8.755-2.274-13.984-8.982-13.984h-5.57v30.697H848.887z"/>
	<path fill="#58595B" d="M886.407,577.813h19.441c0,7.731,0,8.3-1.818,8.3h-26.945v-77.767c0,0,0.113-1.818,1.933-1.818h27.286
		c0,7.39,0,8.299-1.819,8.299h-18.077v23.763h17.054c0,6.935,0,8.526-1.705,8.526h-15.349V577.813z"/>
	<path fill="#58595B" d="M945.871,511.076c0,1.591-0.683,3.638-2.274,5.343c-1.478-1.25-5.912-2.842-11.142-2.842
		c-6.708,0-11.028,2.842-11.028,7.845c0,4.207,1.819,7.163,5.229,11.256l12.279,13.984c5.912,7.049,7.617,12.165,7.617,19.214
		c0,11.483-4.889,21.374-20.351,21.374c-10.347,0-14.894-3.638-14.894-6.821c0-1.819,0.795-4.548,2.387-6.595
		c2.388,2.16,6.254,3.979,11.711,3.979c8.072,0,11.142-4.661,11.142-11.597c0-5.229-1.592-8.981-6.594-14.78l-11.369-13.302
		c-5.23-6.367-7.163-11.028-7.163-16.372c0-9.664,6.821-16.372,19.556-16.372C941.778,505.391,945.871,507.893,945.871,511.076z"/>
	<path fill="#58595B" d="M974.522,578.724c3.979,0,8.072-1.023,10.005-2.047v-68.216c0-1.933,0.114-1.933,9.323-1.933v76.629
		c-2.843,1.819-10.347,4.093-19.328,4.093c-18.19,0-20.465-11.142-20.465-24.33v-54.459c0-1.933,0-1.933,9.551-1.933v56.619
		C963.608,572.356,964.973,578.724,974.522,578.724z"/>
	<path fill="#58595B" d="M1049.449,506.528v77.652c0,1.933,0,1.933-9.437,1.933l0.341-27.628c0.341-11.255,1.933-31.379,2.16-33.994
		c-2.388,8.527-6.48,23.193-7.39,25.923l-6.026,17.281c-0.228,0.796-0.796,0.909-1.25,0.909h-3.979l-5.912-18.19
		c-0.909-2.502-4.889-16.94-7.276-25.695l-0.114,0.114c0,0,2.047,21.033,2.16,33.198l0.228,26.149c0,1.933-0.568,1.933-9.209,1.933
		v-77.767c0-1.705,0.91-1.818,1.933-1.818h6.708l10.801,34.335c1.479,4.661,3.639,12.62,3.639,12.62s1.933-7.959,3.297-12.279
		l10.005-32.857c0.341-1.022,0.683-1.818,1.819-1.818H1049.449z"/>
	<path fill="#58595B" d="M1068.78,577.813h19.441c0,7.731,0,8.3-1.818,8.3h-26.945v-77.767c0,0,0.113-1.818,1.933-1.818h27.286
		c0,7.39,0,8.299-1.819,8.299h-18.077v23.763h17.054c0,6.935,0,8.526-1.705,8.526h-15.349V577.813z"/>
</g>
<line fill="none" stroke="#58595B" stroke-width="6" stroke-miterlimit="10" x1="180.807" y1="546.86" x2="484.317" y2="546.86"/>
<line fill="none" stroke="#58595B" stroke-width="6" stroke-miterlimit="10" x1="1120.272" y1="546.86" x2="1423.783" y2="546.86"/>
</svg>
